#N canvas 787 423 846 686 12;
#N canvas 1804 348 778 748 IPF_simple 0;
#X obj 371 291 expr $f2-log($f2/$f3);
#X floatatom 493 217 5 0 0 0 - - - 0;
#X floatatom 409 237 5 0 0 0 - - - 0;
#X floatatom 375 332 5 0 0 0 - - - 0;
#X obj 407 395 0.1;
#X obj 453 395 0.2;
#X obj 500 395 0.3;
#X obj 546 395 0.4;
#X obj 369 395 0;
#X obj 403 355 t f b b b b b, f 18;
#X obj 173 133 phasor~;
#X text 386 263 g;
#X text 454 217 Alpha;
#X text 337 294 IPF;
#X obj 347 135 loadbang;
#X obj 333 165;
#X obj 363 166 0.5;
#X obj 305 626 outlet;
#X obj 427 623 outlet;
#X obj 580 625 outlet;
#X obj 115 629 outlet;
#X text 51 252 Trigger IPF calculation after 1 Period;
#X obj 174 223 threshold~ 0.6 0 0.5 0;
#X obj 173 182 wrap~;
#X text 119 653 Trigger Out;
#X text 313 648 g Out;
#X text 441 645 derivative Out;
#X text 598 647 2nd derivative Out;
#X obj 173 31 inlet;
#X obj 491 33 inlet;
#X text 222 22 Frequency IN;
#X text 532 32 Alpha IN;
#X obj 437 522 expr $f1-$f2;
#X obj 534 550 expr $f1-$f2;
#X obj 22 32 inlet;
#X text 66 33 trigger;
#X text 304 166 g0;
#X text 283 97 g0;
#X obj 333 165 5;
#X obj 254 98 10;
#X connect 0 0 2 0;
#X connect 0 0 3 0;
#X connect 1 0 0 2;
#X connect 2 0 0 1;
#X connect 3 0 9 0;
#X connect 4 0 5 1;
#X connect 4 0 32 1;
#X connect 5 0 6 1;
#X connect 5 0 33 1;
#X connect 6 0 7 1;
#X connect 8 0 4 1;
#X connect 8 0 17 0;
#X connect 8 0 32 0;
#X connect 8 0 33 0;
#X connect 9 0 8 1;
#X connect 9 1 8 0;
#X connect 9 2 4 0;
#X connect 9 3 5 0;
#X connect 9 4 6 0;
#X connect 9 5 7 0;
#X connect 10 0 23 0;
#X connect 14 0 15 0;
#X connect 14 0 16 0;
#X connect 14 0 38 0;
#X connect 16 0 0 2;
#X connect 22 1 0 0;
#X connect 22 1 20 0;
#X connect 23 0 22 0;
#X connect 28 0 10 0;
#X connect 29 0 1 0;
#X connect 32 0 18 0;
#X connect 33 0 19 0;
#X connect 34 0 39 0;
#X connect 38 0 2 0;
#X connect 39 0 2 0;
#X restore 150 212 pd IPF_simple;
#X floatatom 243 69 5 0 0 0 - - - 0;
#X obj 398 500 dac~;
#X obj 411 318 osc~;
#X obj 572 23 tgl 19 0 empty empty empty 0 -10 0 12 #fcfcfc #000000 #000000 0 1;
#X obj 406 426 *~;
#X obj 111 19 hsl 162 19 50 440 0 0 empty empty Frequency -2 -10 0 12 #fcfcfc #000000 #000000 0 1;
#X obj 355 14 hsl 162 19 0.37 1 0 0 empty empty Alpha -2 -10 0 12 #fcfcfc #000000 #000000 0 1;
#X floatatom 351 45 5 0 0 0 - - - 0;
#X obj 406 380 *~;
#X text 446 379 AM with g;
#X obj 702 98 vsl 19 162 0 50 0 0 empty empty FM\ Mod.\ Depth 0 -9 0 12 #fcfcfc #000000 #000000 0 1;
#X floatatom 276 261 5 0 0 0 - - - 0;
#X obj 170 161 + 0;
#X text 59 164 FM mit dif g;
#X floatatom 39 222 5 0 0 0 - - - 0;
#X text 605 21 play;
#X obj 176 115 t b f;
#X floatatom 90 402 5 0 0 0 - - - 0;
#X floatatom 701 310 5 0 0 0 - - - 0;
#X obj 407 108 bng 19 250 50 0 empty empty empty 0 -10 0 12 #fcfcfc #000000 #000000;
#X obj 120 332 expr $f2*$f3;
#X connect 0 0 21 0;
#X connect 0 1 9 1;
#X connect 0 2 12 0;
#X connect 0 2 21 1;
#X connect 1 0 3 0;
#X connect 1 0 13 0;
#X connect 3 0 9 0;
#X connect 4 0 5 1;
#X connect 4 0 20 0;
#X connect 5 0 2 0;
#X connect 5 0 2 1;
#X connect 6 0 1 0;
#X connect 7 0 8 0;
#X connect 8 0 0 2;
#X connect 9 0 5 0;
#X connect 11 0 19 0;
#X connect 11 0 21 2;
#X connect 13 0 0 1;
#X connect 13 0 15 0;
#X connect 17 0 13 0;
#X connect 17 1 13 1;
#X connect 20 0 0 0;
#X connect 21 0 17 0;
#X connect 21 0 18 0;
