#N canvas 286 286 688 427 12;
#X obj 34 21 inlet;
#X obj 156 22 inlet;
#X obj 389 16 inlet;
#X text 74 21 trigger;
#X text 195 19 g;
#X text 432 16 alpha;
#X obj 72 210 expr $f2-log($f3);
#X text 530 20 beta;
#X obj 77 252 outlet;
#X text 133 253 g;
#X obj 243 27 inlet;
#X text 282 24 g-1;
#X obj 108 178 sel 1;
#X obj 488 18 inlet;
#X floatatom 391 189 5 0 0 0 - - - 0;
#X floatatom 297 259 5 0 0 0 - - - 0;
#X floatatom 213 186 5 0 0 0 - - - 0;
#X obj 146 150 expr if ($f1>0 \, 1 \, 0);
#X floatatom 488 43 5 0 0 0 - - - 0;
#X floatatom 389 41 5 0 0 0 - - - 0;
#X obj 150 110 expr $f2/$f4-($f5/$f4*exp($f2-$f3));
#X obj 243 52 expr if($f1==0 \, 2 \, $f1);
#X connect 0 0 20 0;
#X connect 1 0 6 1;
#X connect 1 0 20 1;
#X connect 2 0 19 0;
#X connect 2 0 20 3;
#X connect 6 0 15 0;
#X connect 6 0 8 0;
#X connect 10 0 21 0;
#X connect 12 0 6 0;
#X connect 12 1 8 0;
#X connect 13 0 18 0;
#X connect 13 0 20 4;
#X connect 17 0 12 0;
#X connect 17 0 16 0;
#X connect 20 0 6 2;
#X connect 20 0 14 0;
#X connect 20 0 17 0;
#X connect 21 0 20 2;
